<?xml version="1.0" encoding="UTF-8" standalone="no"?>
<!DOCTYPE svg PUBLIC "-//W3C//DTD SVG 1.1//EN"
 "http://www.w3.org/Graphics/SVG/1.1/DTD/svg11.dtd">
<!-- Generated by graphviz version 12.1.1 (20240910.0053)
 -->
<!-- Title: INFRA Pages: 1 -->
<svg width="630pt" height="188pt"
 viewBox="0.00 0.00 630.17 188.00" xmlns="http://www.w3.org/2000/svg" xmlns:xlink="http://www.w3.org/1999/xlink">
<g id="graph0" class="graph" transform="scale(1 1) rotate(0) translate(4 184)">
<title>INFRA</title>
<polygon fill="white" stroke="none" points="-4,4 -4,-184 626.17,-184 626.17,4 -4,4"/>
<!-- WebSocketMessageBroker -->
<g id="node1" class="node">
<title>WebSocketMessageBroker</title>
<path fill="#cce0ac" stroke="black" stroke-width="2" d="M345.59,-72C345.59,-72 118.61,-72 118.61,-72 112.61,-72 106.61,-66 106.61,-60 106.61,-60 106.61,-12 106.61,-12 106.61,-6 112.61,0 118.61,0 118.61,0 345.59,0 345.59,0 351.59,0 357.59,-6 357.59,-12 357.59,-12 357.59,-60 357.59,-60 357.59,-66 351.59,-72 345.59,-72"/>
<text text-anchor="middle" x="232.1" y="-40.2" font-family="Arial" font-size="14.00">WebSocketMessageBroker</text>
<text text-anchor="middle" x="232.1" y="-23.4" font-family="Arial" font-size="14.00">(Spring::WebSocket::MessageBroker)</text>
</g>
<!-- WebSocketEndpoint -->
<g id="node2" class="node">
<title>WebSocketEndpoint</title>
<path fill="#e78f81" stroke="black" stroke-width="2" d="M196.21,-180C196.21,-180 12,-180 12,-180 6,-180 0,-174 0,-168 0,-168 0,-120 0,-120 0,-114 6,-108 12,-108 12,-108 196.21,-108 196.21,-108 202.21,-108 208.21,-114 208.21,-120 208.21,-120 208.21,-168 208.21,-168 208.21,-174 202.21,-180 196.21,-180"/>
<text text-anchor="middle" x="104.1" y="-148.2" font-family="Arial" font-size="14.00">WebSocketEndpoint</text>
<text text-anchor="middle" x="104.1" y="-131.4" font-family="Arial" font-size="14.00">(Spring::WebSocket::Endpoint)</text>
</g>
<!-- WebSocketEndpoint&#45;&gt;WebSocketMessageBroker -->
<g id="edge1" class="edge">
<title>WebSocketEndpoint&#45;&gt;WebSocketMessageBroker</title>
<path fill="none" stroke="black" d="M146.73,-107.7C157.74,-98.59 169.7,-88.68 181.09,-79.24"/>
<polygon fill="black" stroke="black" points="183.03,-82.18 188.5,-73.11 178.57,-76.79 183.03,-82.18"/>
</g>
<!-- JsonMessageConverter -->
<g id="node3" class="node">
<title>JsonMessageConverter</title>
<path fill="#e6e6e6" stroke="black" stroke-width="2" d="M481.77,-180C481.77,-180 238.44,-180 238.44,-180 232.44,-180 226.44,-174 226.44,-168 226.44,-168 226.44,-120 226.44,-120 226.44,-114 232.44,-108 238.44,-108 238.44,-108 481.77,-108 481.77,-108 487.77,-108 493.77,-114 493.77,-120 493.77,-120 493.77,-168 493.77,-168 493.77,-174 487.77,-180 481.77,-180"/>
<text text-anchor="middle" x="360.1" y="-148.2" font-family="Arial" font-size="14.00">JsonMessageConverter</text>
<text text-anchor="middle" x="360.1" y="-131.4" font-family="Arial" font-size="14.00">(Spring::Messaging::MessageConverter)</text>
</g>
<!-- JsonMessageConverter&#45;&gt;WebSocketMessageBroker -->
<g id="edge2" class="edge">
<title>JsonMessageConverter&#45;&gt;WebSocketMessageBroker</title>
<path fill="none" stroke="black" d="M317.48,-107.7C306.47,-98.59 294.5,-88.68 283.11,-79.24"/>
<polygon fill="black" stroke="black" points="285.64,-76.79 275.7,-73.11 281.17,-82.18 285.64,-76.79"/>
</g>
<!-- ProxyServer -->
<g id="node4" class="node">
<title>ProxyServer</title>
<path fill="#e78f81" stroke="black" stroke-width="2" d="M610.17,-180C610.17,-180 524.04,-180 524.04,-180 518.04,-180 512.04,-174 512.04,-168 512.04,-168 512.04,-120 512.04,-120 512.04,-114 518.04,-108 524.04,-108 524.04,-108 610.17,-108 610.17,-108 616.17,-108 622.17,-114 622.17,-120 622.17,-120 622.17,-168 622.17,-168 622.17,-174 616.17,-180 610.17,-180"/>
<text text-anchor="middle" x="567.1" y="-148.2" font-family="Arial" font-size="14.00">ProxyServer</text>
<text text-anchor="middle" x="567.1" y="-131.4" font-family="Arial" font-size="14.00">(Proxy::Server)</text>
</g>
</g>
</svg>
